<?xml version="1.0" encoding="UTF-8"?>
<svg xmlns="http://www.w3.org/2000/svg" viewBox="0 0 128 128">
  <!-- Background circle -->
  <circle cx="64" cy="64" r="60" fill="#f0f7ff" />
  
  <!-- Analytics chart -->
  <g transform="translate(64, 64)">
    <!-- Chart base/axes -->
    <path d="M-35,30 L-35,-30 L35,-30" fill="none" stroke="#007bff" stroke-width="2.5" stroke-linecap="round" stroke-linejoin="round" />
    
    <!-- Y-axis ticks -->
    <line x1="-38" y1="-20" x2="-35" y2="-20" stroke="#007bff" stroke-width="1.5" />
    <line x1="-38" y1="-10" x2="-35" y2="-10" stroke="#007bff" stroke-width="1.5" />
    <line x1="-38" y1="0" x2="-35" y2="0" stroke="#007bff" stroke-width="1.5" />
    <line x1="-38" y1="10" x2="-35" y2="10" stroke="#007bff" stroke-width="1.5" />
    <line x1="-38" y1="20" x2="-35" y2="20" stroke="#007bff" stroke-width="1.5" />
    
    <!-- X-axis ticks -->
    <line x1="-25" y1="30" x2="-25" y2="33" stroke="#007bff" stroke-width="1.5" />
    <line x1="-15" y1="30" x2="-15" y2="33" stroke="#007bff" stroke-width="1.5" />
    <line x1="-5" y1="30" x2="-5" y2="33" stroke="#007bff" stroke-width="1.5" />
    <line x1="5" y1="30" x2="5" y2="33" stroke="#007bff" stroke-width="1.5" />
    <line x1="15" y1="30" x2="15" y2="33" stroke="#007bff" stroke-width="1.5" />
    <line x1="25" y1="30" x2="25" y2="33" stroke="#007bff" stroke-width="1.5" />
    
    <!-- Bar chart -->
    <rect x="-30" y="10" width="10" height="20" rx="2" fill="#007bff" opacity="0.2" stroke="#007bff" stroke-width="1.5" />
    <rect x="-20" y="0" width="10" height="30" rx="2" fill="#007bff" opacity="0.3" stroke="#007bff" stroke-width="1.5" />
    <rect x="-10" y="-10" width="10" height="40" rx="2" fill="#007bff" opacity="0.4" stroke="#007bff" stroke-width="1.5" />
    <rect x="0" y="-20" width="10" height="50" rx="2" fill="#007bff" opacity="0.5" stroke="#007bff" stroke-width="1.5" />
    <rect x="10" y="-5" width="10" height="35" rx="2" fill="#007bff" opacity="0.4" stroke="#007bff" stroke-width="1.5" />
    <rect x="20" y="5" width="10" height="25" rx="2" fill="#007bff" opacity="0.3" stroke="#007bff" stroke-width="1.5" />
    
    <!-- Line chart overlay -->
    <path d="M-25,15 L-15,10 L-5,-5 L5,-15 L15,0 L25,15" 
          fill="none" stroke="#007bff" stroke-width="2.5" stroke-linecap="round" stroke-linejoin="round" />
    
    <!-- Data points -->
    <circle cx="-25" cy="15" r="3" fill="#ffffff" stroke="#007bff" stroke-width="1.5" />
    <circle cx="-15" cy="10" r="3" fill="#ffffff" stroke="#007bff" stroke-width="1.5" />
    <circle cx="-5" cy="-5" r="3" fill="#ffffff" stroke="#007bff" stroke-width="1.5" />
    <circle cx="5" cy="-15" r="3" fill="#ffffff" stroke="#007bff" stroke-width="1.5" />
    <circle cx="15" cy="0" r="3" fill="#ffffff" stroke="#007bff" stroke-width="1.5" />
    <circle cx="25" cy="15" r="3" fill="#ffffff" stroke="#007bff" stroke-width="1.5" />
  </g>
</svg>