<?xml version="1.0" encoding="UTF-8"?>
<svg xmlns="http://www.w3.org/2000/svg" viewBox="0 0 128 128">
  <!-- Background circle -->
  <circle cx="64" cy="64" r="60" fill="#f0f7ff" />
  
  <!-- Clipboard/Exam paper -->
  <g transform="translate(64, 64)">
    <!-- Clipboard base -->
    <rect x="-30" y="-40" width="60" height="80" rx="4" fill="#ffffff" stroke="#007bff" stroke-width="2.5" />
    
    <!-- Clipboard top -->
    <rect x="-20" y="-48" width="40" height="12" rx="6" fill="#007bff" />
    <rect x="-15" y="-46" width="30" height="8" rx="4" fill="#ffffff" />
    
    <!-- Exam content lines -->
    <rect x="-20" y="-30" width="40" height="4" rx="2" fill="#e0e0e0" />
    <rect x="-20" y="-20" width="40" height="4" rx="2" fill="#e0e0e0" />
    
    <!-- Checkboxes and checks -->
    <rect x="-20" y="-5" width="8" height="8" rx="1" fill="#ffffff" stroke="#007bff" stroke-width="1.5" />
    <polyline points="-18,-1 -16,1 -14,-3" stroke="#007bff" stroke-width="2" stroke-linecap="round" stroke-linejoin="round" />
    <rect x="-8" y="-5" width="28" height="4" rx="2" fill="#e0e0e0" />
    
    <rect x="-20" y="10" width="8" height="8" rx="1" fill="#ffffff" stroke="#007bff" stroke-width="1.5" />
    <polyline points="-18,14 -16,16 -14,12" stroke="#007bff" stroke-width="2" stroke-linecap="round" stroke-linejoin="round" />
    <rect x="-8" y="10" width="28" height="4" rx="2" fill="#e0e0e0" />
    
    <rect x="-20" y="25" width="8" height="8" rx="1" fill="#ffffff" stroke="#007bff" stroke-width="1.5" />
    <rect x="-8" y="25" width="28" height="4" rx="2" fill="#e0e0e0" />
  </g>
</svg>